<svg id="Ebene_6" data-name="Ebene 6" xmlns="http://www.w3.org/2000/svg" viewBox="0 0 19 20"><defs><style>.cls-1{fill:none;}</style></defs><path d="M17,7H7V6.5A4.51,4.51,0,0,1,11.5,2h1A4.51,4.51,0,0,1,17,6.5ZM8,6H16A3.5,3.5,0,0,0,12.5,3h-1A3.5,3.5,0,0,0,8,6Z" transform="translate(-1 -2)"/><path class="cls-1" d="M2.5,17.5" transform="translate(-1 -2)"/><path class="cls-1" d="M20.5,9.5" transform="translate(-1 -2)"/><path d="M19.55,10.5,16.64,8.19l.13,1A22.84,22.84,0,0,0,12,8.5c-6.17,0-11,2.73-11,6.2,0,1.68,1.13,3.24,3.19,4.4l.49-.87C3,17.25,2,16,2,14.7c0-2.82,4.58-5.2,10-5.2a21.35,21.35,0,0,1,4.5.68l-.64.79Z" transform="translate(-1 -2)"/><path d="M5,9.62V9.5A2.5,2.5,0,0,1,7.5,7h9a2.5,2.5,0,0,1,2.1,1.15l.84-.55A3.5,3.5,0,0,0,16.5,6h-9A3.5,3.5,0,0,0,4,9.5v.63C4.31,10,4.65,9.78,5,9.62Z" transform="translate(-1 -2)"/><path d="M19,18.5A2.5,2.5,0,0,1,16.5,21h-9A2.5,2.5,0,0,1,5,18.5V11.3a8.09,8.09,0,0,0-1,.62V18.5A3.5,3.5,0,0,0,7.5,22h9A3.5,3.5,0,0,0,20,18.5V12H19Z" transform="translate(-1 -2)"/></svg>