<svg width="19" height="19" viewBox="0 0 19 19" fill="none" xmlns="http://www.w3.org/2000/svg">
<path fill-rule="evenodd" clip-rule="evenodd" d="M12.1976 0.46967C12.4905 0.176777 12.9653 0.176777 13.2582 0.46967L18.5204 5.73186C18.8133 6.02475 18.8133 6.49963 18.5204 6.79252L8.65382 16.6591C8.55568 16.7573 8.43223 16.8263 8.29721 16.8584L1.39058 18.5028C1.13722 18.5632 0.870699 18.4877 0.686536 18.3036C0.502373 18.1194 0.426937 17.8529 0.487262 17.5995L2.13169 10.6929C2.16384 10.5579 2.23283 10.4344 2.33097 10.3363L12.1976 0.46967ZM12.7279 2.06066L3.54174 11.2468L2.22876 16.7613L7.74327 15.4484L16.9294 6.26219L12.7279 2.06066Z" fill="#292929"/>
</svg>
